<svg xmlns="http://www.w3.org/2000/svg" viewBox="0 0 440 160" width="440" height="160">
  <defs>
    <linearGradient id="tensorGrad" x1="0%" y1="0%" x2="100%" y2="100%">
      <stop offset="0%" style="stop-color:#6366f1"/>
      <stop offset="50%" style="stop-color:#8b5cf6"/>
      <stop offset="100%" style="stop-color:#06b6d4"/>
    </linearGradient>
    <linearGradient id="accentGrad" x1="0%" y1="0%" x2="100%" y2="0%">
      <stop offset="0%" style="stop-color:#8b5cf6"/>
      <stop offset="100%" style="stop-color:#06b6d4"/>
    </linearGradient>
    <linearGradient id="dotGrad" x1="0%" y1="0%" x2="100%" y2="100%">
      <stop offset="0%" style="stop-color:#fbbf24"/>
      <stop offset="100%" style="stop-color:#f97316"/>
    </linearGradient>
    <linearGradient id="bgGrad" x1="0%" y1="0%" x2="100%" y2="100%">
      <stop offset="0%" style="stop-color:#0f172a"/>
      <stop offset="100%" style="stop-color:#1e1b4b"/>
    </linearGradient>
  </defs>

  <!-- Background -->
  <rect width="440" height="160" rx="16" fill="url(#bgGrad)"/>
  
  <!-- Subtle grid pattern (tensor grid feel) -->
  <g opacity="0.04" stroke="#8b5cf6" stroke-width="0.5">
    <line x1="0" y1="40" x2="440" y2="40"/>
    <line x1="0" y1="80" x2="440" y2="80"/>
    <line x1="0" y1="120" x2="440" y2="120"/>
    <line x1="110" y1="0" x2="110" y2="160"/>
    <line x1="220" y1="0" x2="220" y2="160"/>
    <line x1="330" y1="0" x2="330" y2="160"/>
  </g>

  <!-- Logo Mark -->
  <g transform="translate(30, 35)">
    <!-- Tensor brackets -->
    <path d="M 5 5 L 5 85 L 18 85 L 18 79 L 11 79 L 11 11 L 18 11 L 18 5 Z" fill="url(#tensorGrad)" opacity="0.85"/>
    <path d="M 85 5 L 85 85 L 72 85 L 72 79 L 79 79 L 79 11 L 72 11 L 72 5 Z" fill="url(#tensorGrad)" opacity="0.85"/>
    
    <!-- Flow lines -->
    <line x1="22" y1="28" x2="68" y2="28" stroke="url(#accentGrad)" stroke-width="3.5" stroke-linecap="round"/>
    <line x1="22" y1="45" x2="68" y2="45" stroke="url(#accentGrad)" stroke-width="3.5" stroke-linecap="round"/>
    <line x1="22" y1="62" x2="68" y2="62" stroke="url(#accentGrad)" stroke-width="3.5" stroke-linecap="round"/>
    
    <!-- Animated feel: staggered dots -->
    <circle cx="30" cy="28" r="4" fill="url(#dotGrad)"/>
    <circle cx="45" cy="45" r="4" fill="url(#dotGrad)"/>
    <circle cx="60" cy="62" r="4" fill="url(#dotGrad)"/>
    
    <!-- Convergence arrow -->
    <path d="M 68 28 L 80 45 L 68 62" fill="none" stroke="#06b6d4" stroke-width="3" stroke-linecap="round" stroke-linejoin="round"/>
    <circle cx="80" cy="45" r="5" fill="#06b6d4"/>
    
    <!-- Output pulse -->
    <circle cx="80" cy="45" r="9" fill="none" stroke="#06b6d4" opacity="0.3" stroke-width="1.5"/>
  </g>

  <!-- Text -->
  <g transform="translate(135, 20)">
    <text x="0" y="75" font-family="'Inter', 'SF Pro Display', -apple-system, sans-serif" font-size="58" font-weight="700" fill="#f1f5f9" letter-spacing="-2">
      Infer
    </text>
    <text x="158" y="75" font-family="'Inter', 'SF Pro Display', -apple-system, sans-serif" font-size="58" font-weight="800" fill="url(#tensorGrad)" letter-spacing="-2">
      X
    </text>
  </g>

  <!-- Tagline -->
  <text x="137" y="110" font-family="'Inter', 'SF Pro Display', -apple-system, sans-serif" font-size="13" font-weight="500" fill="#94a3b8" letter-spacing="4">
    AI INFERENCE ENGINE
  </text>

  <!-- Accent line -->
  <rect x="137" y="118" width="100" height="2" rx="1" fill="url(#accentGrad)" opacity="0.7"/>

  <!-- Bottom tagline -->
  <text x="137" y="140" font-family="'Inter', 'SF Pro Display', -apple-system, sans-serif" font-size="11" font-weight="400" fill="#64748b" letter-spacing="1">
    C++20 Tensor Engine + Visual Pipeline
  </text>
</svg>
